<svg id="Audio" xmlns="http://www.w3.org/2000/svg" width="20" height="21" viewBox="0 0 20 21">
  <path id="Combined_Shape" data-name="Combined Shape" d="M18,13H2a2,2,0,0,1-2-2V2A2,2,0,0,1,2,0H18a2,2,0,0,1,2,2v9A2,2,0,0,1,18,13ZM8.833,7.944A1.7,1.7,0,0,0,7,9.472,1.7,1.7,0,0,0,8.833,11a1.75,1.75,0,0,0,1.82-1.344.815.815,0,0,0,.013-.153V5.055c1.657-.316,2.657-.515,3.056-.611a.734.734,0,0,0,.611-.652V2.717A.7.7,0,0,0,13.647,2a.666.666,0,0,0-.206.033L9.927,3.108a.711.711,0,0,0-.482.684v4.24A2.152,2.152,0,0,0,8.833,7.944Z" transform="translate(0 8)" fill="#fff"/>
  <rect id="Rectangle_116_Copy" data-name="Rectangle 116 Copy" width="14" height="2" rx="0.5" transform="translate(3 4)" fill="#fff"/>
  <rect id="Rectangle_116_Copy_2" data-name="Rectangle 116 Copy 2" width="10" height="2" rx="0.5" transform="translate(5)" fill="#fff"/>
</svg>
